<svg width="69" height="15" viewBox="0 0 69 15" fill="none" xmlns="http://www.w3.org/2000/svg">
<path d="M6.06 15C5.38 15 4.75333 14.88 4.18 14.64C3.60666 14.4 3.10666 14.0467 2.68 13.58H2.64L2.62 14.8H-4.76837e-06V0.199999H2.76V5.62H2.8C3.2 5.14 3.67333 4.78667 4.22 4.56C4.78 4.32 5.39333 4.2 6.06 4.2C7.43333 4.2 8.5 4.67333 9.26 5.62C10.02 6.56667 10.4 7.89333 10.4 9.6C10.4 11.3067 10.02 12.6333 9.26 13.58C8.5 14.5267 7.43333 15 6.06 15ZM5.24 12.8C6.04 12.8 6.65333 12.5267 7.08 11.98C7.50666 11.42 7.72 10.6267 7.72 9.6C7.72 8.57333 7.50666 7.78667 7.08 7.24C6.65333 6.68 6.04 6.4 5.24 6.4C4.77333 6.4 4.34666 6.5 3.96 6.7C3.58666 6.9 3.29333 7.17333 3.08 7.52C2.86666 7.85333 2.76 8.24 2.76 8.68V10.52C2.76 10.96 2.86666 11.3533 3.08 11.7C3.29333 12.0333 3.58666 12.3 3.96 12.5C4.34666 12.7 4.77333 12.8 5.24 12.8ZM14.4977 15C13.471 15 12.6577 14.7133 12.0577 14.14C11.471 13.5667 11.1777 12.8 11.1777 11.84C11.1777 10.64 11.6443 9.71333 12.5777 9.06C13.5243 8.40667 14.8643 8.08 16.5977 8.08H17.9777C17.9777 7.61333 17.9177 7.25333 17.7977 7C17.691 6.74667 17.4977 6.57333 17.2177 6.48C16.951 6.37333 16.5643 6.32 16.0577 6.32C15.391 6.32 14.6977 6.39333 13.9777 6.54C13.2577 6.67333 12.5777 6.86667 11.9377 7.12L11.5977 5C12.291 4.74667 13.0577 4.55333 13.8977 4.42C14.751 4.27333 15.5977 4.2 16.4377 4.2C17.5043 4.2 18.3443 4.32667 18.9577 4.58C19.571 4.83333 20.0177 5.26 20.2977 5.86C20.5777 6.44667 20.7177 7.24 20.7177 8.24V14.8H18.0977L18.0577 13.6H18.0377C17.6643 14.0267 17.151 14.3667 16.4977 14.62C15.8443 14.8733 15.1777 15 14.4977 15ZM15.4977 12.92C15.9643 12.92 16.3843 12.84 16.7577 12.68C17.131 12.52 17.4243 12.3 17.6377 12.02C17.8643 11.7267 17.9777 11.4067 17.9777 11.06V9.88H16.9977C15.9177 9.88 15.111 10.02 14.5777 10.3C14.0443 10.5667 13.7777 10.9867 13.7777 11.56C13.7777 11.9867 13.9243 12.32 14.2177 12.56C14.5243 12.8 14.951 12.92 15.4977 12.92ZM22.6086 14.8V4.4H25.2486L25.2686 6.34H25.3286C25.6753 5.87333 26.0819 5.48667 26.5486 5.18C27.0286 4.86 27.5486 4.62 28.1086 4.46C28.6819 4.28667 29.2686 4.2 29.8686 4.2V6.54C29.0419 6.54 28.2886 6.69333 27.6086 7C26.9286 7.30667 26.3886 7.72667 25.9886 8.26C25.5886 8.78 25.3886 9.36 25.3886 10V14.8H22.6086ZM29.477 14.8V11.74H32.537V14.8H29.477ZM39.3019 15C37.6352 15 36.0819 14.6267 34.6419 13.88L35.2419 11.56C35.7485 11.8133 36.2085 12.02 36.6219 12.18C37.0352 12.3267 37.4352 12.4333 37.8219 12.5C38.2219 12.5667 38.6285 12.6 39.0419 12.6C40.0819 12.6 40.8752 12.4 41.4219 12C41.9685 11.6 42.2419 11.02 42.2419 10.26C42.2419 9.74 42.0952 9.32 41.8019 9C41.5219 8.66667 41.0619 8.43333 40.4219 8.3C39.7952 8.15333 38.9552 8.08 37.9019 8.08H36.4619V5.8L40.9219 2.64V2.6H34.8019V0.199999H44.7019V2.6L39.9819 5.98V6.02H40.7419C42.1152 6.02 43.1885 6.4 43.9619 7.16C44.7352 7.90667 45.1219 8.94 45.1219 10.26C45.1219 11.78 44.6152 12.9533 43.6019 13.78C42.5885 14.5933 41.1552 15 39.3019 15ZM49.8711 15C48.8444 15 48.0311 14.7133 47.4311 14.14C46.8444 13.5667 46.5511 12.8 46.5511 11.84C46.5511 10.64 47.0178 9.71333 47.9511 9.06C48.8978 8.40667 50.2378 8.08 51.9711 8.08H53.3511C53.3511 7.61333 53.2911 7.25333 53.1711 7C53.0644 6.74667 52.8711 6.57333 52.5911 6.48C52.3244 6.37333 51.9378 6.32 51.4311 6.32C50.7644 6.32 50.0711 6.39333 49.3511 6.54C48.6311 6.67333 47.9511 6.86667 47.3111 7.12L46.9711 5C47.6644 4.74667 48.4311 4.55333 49.2711 4.42C50.1244 4.27333 50.9711 4.2 51.8111 4.2C52.8778 4.2 53.7178 4.32667 54.3311 4.58C54.9444 4.83333 55.3911 5.26 55.6711 5.86C55.9511 6.44667 56.0911 7.24 56.0911 8.24V14.8H53.4711L53.4311 13.6H53.4111C53.0378 14.0267 52.5244 14.3667 51.8711 14.62C51.2178 14.8733 50.5511 15 49.8711 15ZM50.8711 12.92C51.3378 12.92 51.7578 12.84 52.1311 12.68C52.5044 12.52 52.7978 12.3 53.0111 12.02C53.2378 11.7267 53.3511 11.4067 53.3511 11.06V9.88H52.3711C51.2911 9.88 50.4844 10.02 49.9511 10.3C49.4178 10.5667 49.1511 10.9867 49.1511 11.56C49.1511 11.9867 49.2978 12.32 49.5911 12.56C49.8978 12.8 50.3244 12.92 50.8711 12.92ZM63.082 -9.53674e-07C64.2954 -9.53674e-07 65.3154 0.213332 66.142 0.639999C66.982 1.06667 67.6154 1.7 68.042 2.54C68.4687 3.36667 68.682 4.4 68.682 5.64C68.682 7.48 68.3154 9.08667 67.582 10.46C66.862 11.82 65.8287 12.8933 64.482 13.68C63.1487 14.4533 61.5487 14.8867 59.682 14.98L59.182 12.72C60.8087 12.6533 62.122 12.34 63.122 11.78C64.1354 11.2067 64.8887 10.36 65.382 9.24L65.342 9.22C64.8887 9.47333 64.4087 9.66667 63.902 9.8C63.3954 9.93333 62.8487 10 62.262 10C60.7687 10 59.5954 9.56667 58.742 8.7C57.902 7.83333 57.482 6.64 57.482 5.12C57.482 4.05333 57.702 3.14 58.142 2.38C58.5954 1.62 59.2354 1.03333 60.062 0.619998C60.902 0.206665 61.9087 -9.53674e-07 63.082 -9.53674e-07ZM63.082 2.34C62.1754 2.34 61.4754 2.58 60.982 3.06C60.502 3.54 60.262 4.20667 60.262 5.06C60.262 5.92667 60.4954 6.6 60.962 7.08C61.4287 7.56 62.0887 7.8 62.942 7.8C63.5554 7.8 64.0754 7.7 64.502 7.5C64.942 7.28667 65.282 6.98 65.522 6.58C65.762 6.16667 65.882 5.68667 65.882 5.14C65.882 4.63333 65.782 4.16667 65.582 3.74C65.3954 3.31333 65.0954 2.97333 64.682 2.72C64.2687 2.46667 63.7354 2.34 63.082 2.34Z" fill="black"/>
</svg>
