<svg width="21" height="20" viewBox="0 0 21 20" fill="none" xmlns="http://www.w3.org/2000/svg">
<path d="M11.8398 0.0933446C9.34735 -0.235801 6.81504 0.311897 4.71044 1.6353C2.60583 2.95871 1.07108 4.96845 0.389572 7.29341C-0.291935 9.61838 -0.074169 12.1015 1.00266 14.2844C2.07949 16.4673 3.94265 18.2024 6.24811 19.1693C6.18577 18.4012 6.24299 17.6283 6.41791 16.8763C6.61061 16.0373 7.76791 11.4133 7.76791 11.4133C7.53746 10.9174 7.42229 10.3793 7.43041 9.83634C7.43041 8.35135 8.32311 7.24334 9.43353 7.24334C9.63302 7.24056 9.83079 7.27904 10.0134 7.35617C10.196 7.43331 10.3592 7.54729 10.4918 7.69037C10.6244 7.83344 10.7234 8.00226 10.782 8.18534C10.8406 8.36841 10.8575 8.56146 10.8314 8.75134C10.8314 9.65134 10.2294 11.0133 9.91478 12.2913C9.85261 12.5257 9.84867 12.7708 9.90326 13.007C9.95786 13.2431 10.0695 13.4636 10.2291 13.6507C10.3887 13.8378 10.5919 13.9863 10.8223 14.0842C11.0527 14.1821 11.3038 14.2267 11.5554 14.2143C13.5325 14.2143 14.8575 11.7833 14.8575 8.91334C14.8575 6.71334 13.3398 5.06534 10.5419 5.06534C9.87246 5.04037 9.20476 5.14627 8.57929 5.3766C7.95383 5.60693 7.38365 5.95689 6.90337 6.40523C6.4231 6.85358 6.04276 7.39095 5.78543 7.98472C5.5281 8.57849 5.39917 9.21627 5.40645 9.85934C5.37662 10.5727 5.61635 11.2723 6.08145 11.8293C6.16836 11.8916 6.23182 11.9793 6.26225 12.0793C6.29269 12.1792 6.28846 12.2859 6.2502 12.3833C6.20228 12.5673 6.08145 13.0063 6.03353 13.1673C6.02356 13.2219 6.00038 13.2735 5.96585 13.318C5.93131 13.3624 5.88639 13.3984 5.83471 13.4231C5.78302 13.4478 5.72602 13.4605 5.66828 13.4602C5.61054 13.4599 5.55368 13.4466 5.50228 13.4213C4.06061 12.8673 3.38145 11.3443 3.38145 9.60534C3.38145 6.75834 5.86478 3.35034 10.8335 3.35034C14.7877 3.35034 17.4169 6.12734 17.4169 9.09734C17.4169 13.0063 15.1492 15.9453 11.7981 15.9453C11.2973 15.9607 10.8005 15.8546 10.3537 15.6368C9.90686 15.419 9.52447 15.0966 9.24187 14.6993C9.24187 14.6993 8.63978 17.0153 8.52103 17.4533C8.27863 18.21 7.92093 18.9282 7.45957 19.5843C8.42103 19.8643 9.41999 20.0043 10.4242 20.0003C11.7925 20.0014 13.1476 19.7433 14.4118 19.2409C15.6761 18.7385 16.8247 18.0016 17.7919 17.0725C18.7591 16.1433 19.5259 15.0401 20.0484 13.826C20.5708 12.612 20.8387 11.3109 20.8367 9.99734C20.8354 7.58234 19.9239 5.24934 18.2706 3.42912C16.6174 1.60891 14.3339 0.424409 11.8419 0.0943445L11.8398 0.0933446Z" fill="white"/>
</svg>
